<?xml version="1.0" encoding="utf-8"?>
<!-- Generator: Adobe Illustrator 20.0.0, SVG Export Plug-In . SVG Version: 6.00 Build 0)  -->
<svg version="1.1" id="Layer_1" xmlns="http://www.w3.org/2000/svg" xmlns:xlink="http://www.w3.org/1999/xlink" x="0px" y="0px"
	 viewBox="0 0 2580 1800" style="enable-background:new 0 0 2580 1800;" xml:space="preserve">
<style type="text/css">
	.st0{fill:#D7C9A9;stroke:#000000;stroke-width:0.25;stroke-linecap:round;stroke-linejoin:round;stroke-miterlimit:10;}
	.st1{fill:#CBCABE;stroke:#000000;stroke-width:0.25;stroke-linecap:round;stroke-linejoin:round;stroke-miterlimit:10;}
	.st2{fill:#98CBB1;stroke:#000000;stroke-width:0.25;stroke-linecap:round;stroke-linejoin:round;stroke-miterlimit:10;}
	.st3{stroke:#000000;stroke-width:0.5;stroke-linecap:round;stroke-linejoin:round;stroke-miterlimit:10;}
	.st4{fill:#2F9169;stroke:#000000;stroke-width:0.5;stroke-linecap:round;stroke-linejoin:round;stroke-miterlimit:10;}
	.st5{fill:#E8A5A5;stroke:#231F20;stroke-width:0.5;stroke-miterlimit:10;}
	.st6{fill:#D692A3;stroke:#000000;stroke-width:0.5;stroke-linecap:round;stroke-linejoin:round;stroke-miterlimit:10;}
	.st7{fill:#FFFFFF;stroke:#000000;stroke-width:0.5;stroke-linecap:round;stroke-linejoin:round;stroke-miterlimit:10;}
	
		.st8{fill:#2F9169;stroke:#000000;stroke-width:0.5;stroke-linecap:round;stroke-linejoin:round;stroke-miterlimit:10;stroke-dasharray:7,15;}
	.st9{fill:#CBCABE;stroke:#000000;stroke-width:0.5;stroke-linecap:round;stroke-linejoin:round;stroke-miterlimit:10;}
	.st10{fill:none;stroke:#E8A5A5;stroke-width:2;stroke-miterlimit:10;}
	.st11{fill:none;stroke:#4BACDD;stroke-width:2;stroke-miterlimit:10;}
</style>
<g>
	<path class="st0" d="M235.6,1233.2V952.8c0-42.2,22.9-80.6,58.8-98.7L1244.8,377v346L235.6,1233.2z"/>
	<path class="st1" d="M2385.8,1172.4c0-91.2,0-182.4,0-273.6c0-47.8-28.3-90.5-70.9-107L1244.8,377v342.4
		C1625.1,870.4,2005.5,1021.4,2385.8,1172.4z"/>
	<path class="st2" d="M235.6,1232.8l696.1,278.1c282,112.6,594.4,98.3,866.4-39.9l587.7-298.5L1245.4,717.7L235.6,1232.8z"/>
	<path class="st3" d="M1254.3,1025.9l-126.6-99.2c-2.6-2-0.3-6.1,2.8-4.9l569,210.7"/>
	<path class="st3" d="M915.2,1190.2l529.6,197c5.3,2,11.1,1.7,16.2-0.7l338.4-160.4l-551.8-205.3l-332.9,157.8
		C909.7,1181,910,1188.2,915.2,1190.2z"/>
	<path class="st4" d="M940.5,1200l529.6,197c5.3,2,11.1,1.7,16.2-0.7l338.4-160.4l0-26.9l-551.8-205l-336.5,162.4
		C936,1195.7,935.3,1198.1,940.5,1200z"/>
	<path class="st5" d="M940.5,1173.1l529.6,197c5.3,2,11.1,1.7,16.2-0.7l338.4-160.4l-551.8-205.3L940,1161.6
		C935,1163.9,935.3,1171.2,940.5,1173.1z"/>
	<polygon class="st6" points="1187.4,1218.9 1329.9,1271.9 1416,1231.1 1273.5,1178.1 	"/>
	<path class="st5" d="M1339.7,614.6L1872.8,813c4.9,1.8,7.9,6.8,7.2,12l-55.2,384l-551.8-205.3l54.9-382.1
		C1328.7,616.1,1334.4,612.7,1339.7,614.6z"/>
	<polygon class="st7" points="1348.5,649.9 1853.6,838.2 1805.4,1173.1 1300.4,984.8 	"/>
	<line class="st8" x1="1264.6" y1="1058.4" x2="1696" y2="1220.5"/>
	<line class="st8" x1="1239.1" y1="1070.5" x2="1670.4" y2="1232.5"/>
	<line class="st8" x1="1213.5" y1="1082.5" x2="1644.9" y2="1244.5"/>
	<line class="st8" x1="1188" y1="1094.5" x2="1619.3" y2="1256.6"/>
	<line class="st8" x1="1162.4" y1="1106.6" x2="1593.7" y2="1268.6"/>
	<g>
		<polyline class="st9" points="1825.1,1302.3 1864.3,1272.2 1816.2,1283.7 		"/>
		<path class="st9" d="M1626.9,1374.7c-1.9,2.7-2.1,6.9-0.3,10.8s5.2,6.3,8.5,6.6l0.4,0.8l188-89.6c4.1-2,5.4-7.8,2.9-13.1
			c-2.5-5.3-7.9-7.9-12-6l-188,89.6L1626.9,1374.7z"/>
		<path class="st9" d="M1604.2,1385.5c-1.9,2.7-2.1,6.9-0.3,10.8s5.2,6.3,8.5,6.6l0.4,0.8l22.7-10.8c4.1-2,5.4-7.8,2.9-13.1
			s-7.9-7.9-12-6l-22.7,10.8L1604.2,1385.5z"/>
		<path class="st9" d="M1603.4,1384.8c4.1-2,9.5,0.7,12,6s1.2,11.1-2.9,13.1c-4.1,2-12.4,0.7-14.9-4.6
			C1595.1,1394,1599.3,1386.8,1603.4,1384.8z"/>
		<path class="st9" d="M1852.7,1281.2c0,0,3.3-3.7,0.2-6.2c0,0,7.6-4.2,11.5-2.7C1866.3,1276.4,1852.7,1281.2,1852.7,1281.2z"/>
	</g>
	<polyline class="st10" points="1417.7,767.3 1387.3,968.9 1681.1,1075.8 	"/>
	<polyline class="st11" points="1391.3,941.9 1429.2,891 1448.6,941.9 1509.9,847.1 1517,899.2 1564,815.4 1564,948.2 1593.7,900.2 
		1602.8,961.5 1658,888.5 1658,916.5 1706,844 	"/>
</g>
</svg>
