<?xml version="1.0" encoding="utf-8"?>
<!-- Generator: Adobe Illustrator 20.0.0, SVG Export Plug-In . SVG Version: 6.00 Build 0)  -->
<svg version="1.1" id="Layer_1" xmlns="http://www.w3.org/2000/svg" xmlns:xlink="http://www.w3.org/1999/xlink" x="0px" y="0px"
	 viewBox="0 0 2580 1800" style="enable-background:new 0 0 2580 1800;" xml:space="preserve">
<style type="text/css">
	.st0{fill:#D7C9A9;stroke:#000000;stroke-width:0.25;stroke-linecap:round;stroke-linejoin:round;stroke-miterlimit:10;}
	.st1{fill:#CBCABE;stroke:#000000;stroke-width:0.25;stroke-linecap:round;stroke-linejoin:round;stroke-miterlimit:10;}
	.st2{fill:#98CBB1;stroke:#000000;stroke-width:0.25;stroke-linecap:round;stroke-linejoin:round;stroke-miterlimit:10;}
	.st3{stroke:#000000;stroke-linecap:round;stroke-linejoin:round;stroke-miterlimit:10;}
	.st4{fill:#FFFFFF;stroke:#000000;stroke-linecap:round;stroke-linejoin:round;stroke-miterlimit:10;}
	.st5{fill:#E8A5A5;stroke:#000000;stroke-miterlimit:10;}
	.st6{fill:none;stroke:#C47676;stroke-width:3;stroke-miterlimit:10;}
	.st7{fill:#C47676;stroke:#000000;stroke-miterlimit:10;}
	.st8{fill:#C47676;stroke:#000000;stroke-width:0.25;stroke-miterlimit:10;}
	.st9{fill:#DDDCDB;stroke:#000000;stroke-linecap:round;stroke-linejoin:round;stroke-miterlimit:10;}
	.st10{fill:#83A1B5;stroke:#000000;stroke-width:2;stroke-linecap:round;stroke-linejoin:round;stroke-miterlimit:10;}
	.st11{fill:#E8A5A5;}
	.st12{fill:none;stroke:#C47676;stroke-width:4;stroke-miterlimit:10;}
</style>
<g>
	<g>
		<path class="st0" d="M227,1422.4v-280.5c0-42.2,22.9-80.6,58.8-98.7l950.4-477.1v346L227,1422.4z"/>
		<path class="st1" d="M2377.1,1361.6c0-91.2,0-182.4,0-273.6c0-47.8-28.3-90.5-70.9-107l-1070-414.8v342.4
			C1616.5,1059.6,1996.8,1210.6,2377.1,1361.6z"/>
		<path class="st2" d="M227,1421.9L923.1,1700c282,112.6,594.4,98.3,866.4-39.9l587.7-298.5L1236.7,906.9L227,1421.9z"/>
	</g>
	<polyline class="st3" points="1619,1541.5 1177,1376.6 1197.6,1228.7 1424.3,1185.4 	"/>
	<polygon class="st4" points="2052,1037.3 2051.1,1455.2 1619,1541.5 1619.9,1123.6 	"/>
	<g>
		<polygon class="st5" points="1619.9,1123.6 1619,1541.5 1413.3,1355.8 1414.2,937.9 		"/>
	</g>
	<g>
		<polygon class="st1" points="2052,1037.3 1619.9,1123.6 1414.2,937.9 1846.3,851.6 		"/>
	</g>
	<g>
		<polygon class="st5" points="1882.7,773.7 1883.2,1110.8 1519.7,1069.6 1519.2,732.5 		"/>
	</g>
	<g>
		<polygon class="st4" points="1979.7,607.8 1980.3,944.9 1883.2,1110.8 1882.7,773.7 		"/>
	</g>
	<g>
		<polygon class="st1" points="1882.7,773.7 1519.2,732.5 1616.2,566.6 1979.7,607.8 		"/>
	</g>
	<line class="st6" x1="1657.5" y1="149" x2="1657.5" y2="561.6"/>
	<g>
		<path class="st7" d="M1647,568.8v47.6c0,0,21.2-1.2,26.2,16.4c5,17.6-20.3,28.8-38.8,10.6c-18.5-18.1-18.5-33.8-21.2-13.7
			c-1.4,9.9,4.5,37.3,35.7,47.5c31.2,10.2,58.1-12.6,55.6-38.3c-3.2-31.9-39.3-39.1-39.3-39.1l-1.8-34.9"/>
		<path class="st7" d="M1676.2,558.3c0.1,12-9.6,21.7-21.8,21.6c-12.2-0.1-22.2-10-22.3-22c-0.1-12,9.6-21.7,21.8-21.6
			C1666,536.4,1676,546.2,1676.2,558.3z"/>
	</g>
	<g>
		<path class="st8" d="M741.9,1381.8c16.6-16.8,53.6-28.7,96.6-29.1c43-0.5,80,10.7,96.6,27.1l9.3-0.1v55.2
			c0,26.4-47.4,48.2-105.9,48.9c-58.5,0.6-105.9-20.3-105.9-46.6v-55.2L741.9,1381.8z"/>
	</g>
	<path class="st9" d="M732.6,1380.3c0,26.4,47.4,47.2,105.9,46.6c58.5-0.6,105.9-22.5,105.9-48.9s-47.4-47.2-105.9-46.6
		C780,1332.1,732.6,1354,732.6,1380.3z"/>
	<path class="st10" d="M746.2,331.7c0,28.9,18.1,51.6,40.5,50.6c22.3-1,40.5-25.3,40.5-54.2c0-28.9-18.1-51.6-40.5-50.6
		C764.4,278.5,746.2,302.8,746.2,331.7z"/>
	<path class="st1" d="M614.7,323.1c0-87,51.8-159.1,119-162.2c18.6-0.8,34.1,1.9,54.8,12.1l46.8,23.4l-97.4,293.3l-44.9-23l0,0
		C647.2,446.1,614.7,390.3,614.7,323.1z"/>
	<g>
		<path class="st11" d="M665,348.6c0,87,54.5,155.1,121.7,152.1s121.7-76,121.7-163s-54.5-155.1-121.7-152.1
			C719.5,188.6,665,261.6,665,348.6z"/>
	</g>
	<g>
		<g>
			<path class="st8" d="M772.9,395c12-8.4,38.6-11.5,69.6-6.8c31,4.7,57.6,16,69.6,28.1l6.7,1l0,963.2c0,19-34.2,34.7-76.3,35.2
				c-42.2,0.4-76.3-14.6-76.3-33.6l0-988.2L772.9,395z"/>
		</g>
		<path class="st8" d="M766.2,393c0,16.3,34.2,34.8,76.3,41.3c42.2,6.5,76.3-1.6,76.3-17.9s-34.2-34.8-76.3-41.3
			C800.4,368.6,766.2,376.6,766.2,393z"/>
	</g>
	<path class="st11" d="M766.2,393l40.4,32.3c0,0-1.5,940.3,0,986.9c-36.5-10.6-40.4-29.9-40.4-29.9L766.2,393z"/>
	<g>
		<polygon class="st12" points="1739.5,116.8 605.8,392.4 493.7,337.7 1632.8,63.6 		"/>
		<polygon class="st12" points="1739.5,116.8 939.9,414.4 806,447.5 605.8,392.4 		"/>
		<polyline class="st12" points="806,447.5 863.7,330.3 939.9,414.4 1023.8,291.3 1105.4,352.4 1157.7,258.9 1215.4,312 
			1272.4,230.9 1310.9,275.7 1367,207.1 1407.1,240.6 1458.7,185.5 1503.3,203.9 1537.9,167.2 1597.2,170.1 		"/>
		<line class="st12" x1="1537.9" y1="167.2" x2="1430.4" y2="112.9"/>
		<line class="st12" x1="1458.7" y1="185.9" x2="1351.1" y2="131.6"/>
		<line class="st12" x1="1369.5" y1="207.9" x2="1261.9" y2="153.5"/>
		<line class="st12" x1="1270" y1="230.8" x2="1162.5" y2="176.4"/>
		<line class="st12" x1="1157.3" y1="258.7" x2="1049.8" y2="204.3"/>
		<line class="st12" x1="1023.8" y1="290.8" x2="916.3" y2="236.4"/>
		<line class="st12" x1="863.2" y1="329.9" x2="755.6" y2="275.5"/>
	</g>
	<path class="st1" d="M752,390.5c0-87,51.8-159.1,119-162.2c18.6-0.8,34.1,1.9,54.8,12.1l46.8,23.4l-97.4,293.3l-44.9-23l0,0
		C784.5,513.6,752,457.7,752,390.5z"/>
	<path class="st8" d="M802.3,416.1c0,87,54.5,155.1,121.7,152.1c67.2-3,121.7-76,121.7-163S991.3,250,924,253S802.3,329,802.3,416.1
		z"/>
	<path class="st1" d="M886.1,410.4c0,28.9,18.1,51.6,40.5,50.6c22.3-1,40.5-25.3,40.5-54.2c0-28.9-18.1-51.6-40.5-50.6
		C904.2,357.3,886.1,381.5,886.1,410.4z"/>
</g>
</svg>
