<?xml version="1.0" encoding="utf-8"?>
<!-- Generator: Adobe Illustrator 20.0.0, SVG Export Plug-In . SVG Version: 6.00 Build 0)  -->
<svg version="1.1" id="Layer_1" xmlns="http://www.w3.org/2000/svg" xmlns:xlink="http://www.w3.org/1999/xlink" x="0px" y="0px"
	 viewBox="0 0 2580 1800" style="enable-background:new 0 0 2580 1800;" xml:space="preserve">
<style type="text/css">
	.st0{fill:none;}
	.st1{fill:none;stroke:#FFFFFF;stroke-width:1.5;stroke-linecap:round;stroke-miterlimit:10;}
	.st2{fill:#D7C9A9;stroke:#000000;stroke-width:0.25;stroke-linecap:round;stroke-linejoin:round;stroke-miterlimit:10;}
	.st3{fill:#CBCABE;stroke:#000000;stroke-width:0.25;stroke-linecap:round;stroke-linejoin:round;stroke-miterlimit:10;}
	.st4{fill:#98CBB1;stroke:#000000;stroke-width:0.25;stroke-linecap:round;stroke-linejoin:round;stroke-miterlimit:10;}
	.st5{fill:#FFFFFF;stroke:#000000;stroke-width:0.25;stroke-linecap:round;stroke-linejoin:round;stroke-miterlimit:10;}
	.st6{fill:#83A1B5;stroke:#000000;stroke-width:0.25;stroke-linecap:round;stroke-linejoin:round;stroke-miterlimit:10;}
	.st7{fill:url(#SVGID_1_);stroke:#000000;stroke-width:0.25;stroke-linecap:round;stroke-linejoin:round;stroke-miterlimit:10;}
	.st8{stroke:#000000;stroke-linecap:round;stroke-linejoin:round;stroke-miterlimit:10;}
	.st9{fill:#E8A5A5;stroke:#231F20;stroke-width:0.5;stroke-miterlimit:10;}
</style>
<pattern  width="100" height="100" patternUnits="userSpaceOnUse" id="_x31_0_dpi_10_x25__4" viewBox="81.3 -156.2 100 100" style="overflow:visible;">
	<g>
		<rect x="81.3" y="-156.2" class="st0" width="100" height="100"/>
		<g>
			<path class="st1" d="M108.8-57.8c3,1.8,6.1,4.2,6.5,7.3c0.5,3.5-2.6,6.5-5.4,9.1c-2,1.8-4.1,3.7-6.1,5.5c-1.6,1.4-3.2,3.1-3,5
				c0.2,2.3,3.1,3.8,5.7,4.6c7,2.1,14.5,1.9,21.9,2.6c6.9,0.6,13.6,1.9,20.2,3.8c1.3,0.4,2.7,0.8,3.7,1.7c2.1,1.9,1.7,4.9,3.2,7.2
				c1.2,1.9,3.4,3,5.7,3.9c6.7,2.7,26.3,7.8,40,5.9"/>
		</g>
		<g>
			<path class="st1" d="M8.8-57.8c3,1.8,6.1,4.2,6.5,7.3c0.5,3.5-2.6,6.5-5.4,9.1c-2,1.8-4.1,3.7-6.1,5.5c-1.6,1.4-3.2,3.1-3,5
				C1-28.5,3.9-27,6.5-26.3c7,2.1,14.5,1.9,21.9,2.6c6.9,0.6,13.6,1.9,20.2,3.8c1.3,0.4,2.7,0.8,3.7,1.7c2.1,1.9,1.7,4.9,3.2,7.2
				c1.2,1.9,3.4,3,5.7,3.9c6.7,2.7,26.3,7.8,40,5.9"/>
		</g>
		<g>
			<path class="st1" d="M166.7-113c2.1-0.3,4.1-0.4,6.2-0.5c12.7-0.7,25.7-1.1,37.9,1.9c3.3,0.8,6.6,1.9,9.4,3.6
				c2.3,1.4,4.5,3.5,4,5.8c-0.3,1.9-2.2,3.3-4.1,4.3c-5.5,3-11.8,4.7-17.7,7.1c-4.3,1.7-8.8,4.1-10,8c-0.2,0.7-0.3,1.5,0,2.1
				c0.4,0.8,1.2,1.3,2.1,1.7c6,3,13.3,3,20.2,3.9c6.2,0.8,12.3,2.5,18,4.9c1.6,0.7,3.2,1.4,4.4,2.6c1.3,1.3,2,3.1,1.8,4.8"/>
		</g>
		<g>
			<path class="st1" d="M108.8-157.8c3,1.8,6.1,4.2,6.5,7.3c0.5,3.5-2.6,6.5-5.4,9.1c-2,1.8-4.1,3.7-6.1,5.5c-1.6,1.4-3.2,3.1-3,5
				c0.2,2.3,3.1,3.8,5.7,4.6c7,2.1,14.5,1.9,21.9,2.6c6.9,0.6,13.6,1.9,20.2,3.8c1.3,0.4,2.7,0.8,3.7,1.7c2.1,1.9,1.7,4.9,3.2,7.2
				c1.2,1.9,3.4,3,5.7,3.9c6.7,2.7,26.3,7.8,40,5.9"/>
			<path class="st1" d="M66.7-113c2.1-0.3,4.1-0.4,6.2-0.5c12.7-0.7,25.7-1.1,37.9,1.9c3.3,0.8,6.6,1.9,9.4,3.6
				c2.3,1.4,4.5,3.5,4,5.8c-0.3,1.9-2.2,3.3-4.1,4.3c-5.5,3-11.8,4.7-17.7,7.1c-4.3,1.7-8.8,4.1-10,8c-0.2,0.7-0.3,1.5,0,2.1
				c0.4,0.8,1.2,1.3,2.1,1.7c6,3,13.3,3,20.2,3.9c6.2,0.8,12.3,2.5,18,4.9c1.6,0.7,3.2,1.4,4.4,2.6c1.3,1.3,2,3.1,1.8,4.8"/>
			<path class="st1" d="M198.2-64.7c-11.5-2-25.4-5.8-28.2-15.3c-1.3-4.4,4.3-9.2,1.7-13.2c-0.9-1.4-2.5-2.3-4.1-3
				c-7.7-3.3-16.8-3.3-25.5-2.7c-5.1,0.3-10.5,1-14.6,3.6c-1.2,0.8-2.4,1.9-2.2,3.2c0.2,1.6,2.2,2.5,3.9,3.1
				c4.8,1.7,9.6,3.4,14.4,5.1c3.8,1.4,7.8,2.8,10.8,5.2s5,6.1,3.9,9.5c-0.6,1.9-2.1,3.6-2.1,5.5c0,1.9,1.4,3.5,3.2,4.6
				s3.9,1.6,6,2.2c5.2,1.4,10.4,2.9,15.6,4.5c1.7,0.5,3.6,1.3,3.9,2.8c0.2,1.1-0.6,2.2-1.7,2.7c-1.1,0.6-2.4,0.8-3.7,0.8
				c-8.3,0.5-16.3-2.2-24.1-4.6c-7.8-2.4-16.2-1.8-24.3-0.3"/>
			<path class="st1" d="M119.9-137.9c5.4-0.1,10.9-0.1,16.3-0.2c3,0,6-0.1,8.9,0.4c4.2,0.7,8.1,2.5,12,4c10.6,4.3,18.6,8.4,35.6,8.4
				"/>
		</g>
		<g>
			<path class="st1" d="M8.8-157.8c3,1.8,6.1,4.2,6.5,7.3c0.5,3.5-2.6,6.5-5.4,9.1c-2,1.8-4.1,3.7-6.1,5.5c-1.6,1.4-3.2,3.1-3,5
				c0.2,2.3,3.1,3.8,5.7,4.6c7,2.1,14.5,1.9,21.9,2.6c6.9,0.6,13.6,1.9,20.2,3.8c1.3,0.4,2.7,0.8,3.7,1.7c2.1,1.9,1.7,4.9,3.2,7.2
				c1.2,1.9,3.4,3,5.7,3.9c6.7,2.7,26.3,7.8,40,5.9"/>
			<path class="st1" d="M98.2-64.7C86.7-66.7,72.8-70.4,70-80c-1.3-4.4,4.3-9.2,1.7-13.2c-0.9-1.4-2.5-2.3-4.1-3
				c-7.7-3.3-16.8-3.3-25.5-2.7c-5.1,0.3-10.5,1-14.6,3.6c-1.2,0.8-2.4,1.9-2.2,3.2c0.2,1.6,2.2,2.5,3.9,3.1
				c4.8,1.7,9.6,3.4,14.4,5.1c3.8,1.4,7.8,2.8,10.8,5.2s5,6.1,3.9,9.5c-0.6,1.9-2.1,3.6-2.1,5.5c0,1.9,1.4,3.5,3.2,4.6
				s3.9,1.6,6,2.2c5.2,1.4,10.4,2.9,15.6,4.5c1.7,0.5,3.6,1.3,3.9,2.8c0.2,1.1-0.6,2.2-1.7,2.7c-1.1,0.6-2.4,0.8-3.7,0.8
				c-8.3,0.5-16.3-2.2-24.1-4.6S39.1-52.3,31-50.7"/>
			<path class="st1" d="M19.9-137.9c5.4-0.1,10.9-0.1,16.3-0.2c3,0,6-0.1,8.9,0.4c4.2,0.7,8.1,2.5,12,4c10.6,4.3,18.6,8.4,35.6,8.4"
				/>
		</g>
		<g>
			<path class="st1" d="M198.2-164.7c-11.5-2-25.4-5.8-28.2-15.3c-1.3-4.4,4.3-9.2,1.7-13.2c-0.9-1.4-2.5-2.3-4.1-3
				c-7.7-3.3-16.8-3.3-25.5-2.7c-5.1,0.3-10.5,1-14.6,3.6c-1.2,0.8-2.4,1.9-2.2,3.2c0.2,1.6,2.2,2.5,3.9,3.1
				c4.8,1.7,9.6,3.4,14.4,5.1c3.8,1.4,7.8,2.8,10.8,5.2c3,2.4,5,6.1,3.9,9.5c-0.6,1.9-2.1,3.6-2.1,5.5c0,1.9,1.4,3.5,3.2,4.6
				s3.9,1.6,6,2.2c5.2,1.4,10.4,2.9,15.6,4.5c1.7,0.5,3.6,1.3,3.9,2.8c0.2,1.1-0.6,2.2-1.7,2.7s-2.4,0.8-3.7,0.8
				c-8.3,0.5-16.3-2.2-24.1-4.6c-7.8-2.4-16.2-1.8-24.3-0.3"/>
		</g>
		<g>
			<path class="st1" d="M98.2-164.7c-11.5-2-25.4-5.8-28.2-15.3c-1.3-4.4,4.3-9.2,1.7-13.2c-0.9-1.4-2.5-2.3-4.1-3
				c-7.7-3.3-16.8-3.3-25.5-2.7c-5.1,0.3-10.5,1-14.6,3.6c-1.2,0.8-2.4,1.9-2.2,3.2c0.2,1.6,2.2,2.5,3.9,3.1
				c4.8,1.7,9.6,3.4,14.4,5.1c3.8,1.4,7.8,2.8,10.8,5.2c3,2.4,5,6.1,3.9,9.5c-0.6,1.9-2.1,3.6-2.1,5.5c0,1.9,1.4,3.5,3.2,4.6
				s3.9,1.6,6,2.2c5.2,1.4,10.4,2.9,15.6,4.5c1.7,0.5,3.6,1.3,3.9,2.8c0.2,1.1-0.6,2.2-1.7,2.7s-2.4,0.8-3.7,0.8
				c-8.3,0.5-16.3-2.2-24.1-4.6s-16.2-1.8-24.3-0.3"/>
		</g>
	</g>
</pattern>
<g>
	<path class="st2" d="M214.9,1247V966.5c0-42.2,22.9-80.6,58.8-98.7l950.4-477.1v346L214.9,1247z"/>
	<path class="st3" d="M2365.1,1186.2c0-91.2,0-182.4,0-273.6c0-47.8-28.3-90.5-70.9-107l-1070-414.8v342.4
		C1604.4,884.2,1984.7,1035.2,2365.1,1186.2z"/>
	<path class="st4" d="M214.9,1246.5L911,1524.6c282,112.6,594.4,98.3,866.4-39.9l587.7-298.5L1224.7,731.5L214.9,1246.5z"/>
	<g>
		<polygon class="st5" points="1503.6,925.9 672.3,1319.2 733.6,1368.5 1503.7,983.7 		"/>
		<polygon class="st5" points="1503.6,925.9 1503.6,1000.1 1974.4,1153.4 2045.4,1107.9 		"/>
		<g>
			<path class="st6" d="M711.3,1335.4c0,0,15.8-22.8,57.1-35.9c41.3-13.1,59.4,5,99.7-19.1c40.3-24.2,34.7-35.2,73.7-54.9
				s48.1-5.7,89.4-24.8c41.3-19.1,33.2-35.2,72.5-49.3c39.3-14.1,59.4-9.1,92.7-32.2c33.2-23.2,21.2-34,72.5-50.2
				s57.4-2.7,87.6-24.6c30.2-21.9,31.2-30.3,65.5-39.7c34.3-9.4,59.1-11.1,81.5-38.3c0,0,107,49.2,145.3,48.8
				c38.3-0.3,47.3,47,99.7,48c52.4,1,84.6,29.2,132,35.3s32.3,27.3,87.7,39.4l-785.6,373.4L711.3,1335.4z"/>
			<pattern  id="SVGID_1_" xlink:href="#_x31_0_dpi_10_x25__4" patternTransform="matrix(2.3914 0 0 2.3914 9406.1279 7745.103)">
			</pattern>
			<path class="st7" d="M711.3,1335.4c0,0,15.8-22.8,57.1-35.9c41.3-13.1,59.4,5,99.7-19.1c40.3-24.2,34.7-35.2,73.7-54.9
				s48.1-5.7,89.4-24.8c41.3-19.1,33.2-35.2,72.5-49.3c39.3-14.1,59.4-9.1,92.7-32.2c33.2-23.2,21.2-34,72.5-50.2
				s57.4-2.7,87.6-24.6c30.2-21.9,31.2-30.3,65.5-39.7c34.3-9.4,59.1-11.1,81.5-38.3c0,0,107,49.2,145.3,48.8
				c38.3-0.3,47.3,47,99.7,48c52.4,1,84.6,29.2,132,35.3s32.3,27.3,87.7,39.4l-785.6,373.4L711.3,1335.4z"/>
		</g>
		<g>
			<polygon class="st5" points="1228.5,1525.8 1187,1545.5 1140.6,1528.3 1182.2,1508.6 			"/>
			<polygon class="st5" points="1270.1,1506.2 1228.6,1525.8 1182.2,1508.6 1223.7,1488.9 			"/>
			<polygon class="st5" points="1311.6,1486.5 1270.1,1506.1 1223.8,1488.9 1265.3,1469.3 			"/>
			<polygon class="st5" points="1353.2,1466.8 1311.7,1486.5 1265.3,1469.3 1306.9,1449.6 			"/>
			<polygon class="st5" points="1394.8,1447.2 1353.3,1466.8 1306.9,1449.6 1348.4,1430 			"/>
			<polygon class="st5" points="1436.4,1427.5 1394.8,1447.1 1348.5,1429.9 1390,1410.3 			"/>
			<polygon class="st5" points="1477.9,1407.8 1436.4,1427.5 1390,1410.3 1431.6,1390.6 			"/>
			<polygon class="st5" points="1519.5,1388.2 1478,1407.8 1431.6,1390.6 1473.1,1371 			"/>
			<polygon class="st5" points="1561.1,1368.5 1519.5,1388.2 1473.2,1370.9 1514.7,1351.3 			"/>
			<polygon class="st5" points="1602.6,1348.8 1561.1,1368.5 1514.8,1351.3 1556.3,1331.6 			"/>
			<polygon class="st5" points="1644.2,1329.2 1602.7,1348.8 1556.3,1331.6 1597.8,1312 			"/>
			<polygon class="st5" points="1685.8,1309.5 1644.2,1329.2 1597.9,1311.9 1639.4,1292.3 			"/>
			<polygon class="st5" points="1727.3,1289.9 1685.8,1309.5 1639.5,1292.3 1681,1272.6 			"/>
			<polygon class="st5" points="1768.9,1270.2 1727.4,1289.8 1681,1272.6 1722.6,1253 			"/>
			<polygon class="st5" points="1810.5,1250.5 1769,1270.2 1722.6,1252.9 1764.1,1233.3 			"/>
			<polygon class="st5" points="1852.1,1230.9 1810.5,1250.5 1764.2,1233.3 1805.7,1213.6 			"/>
			<polygon class="st5" points="1893.6,1211.2 1852.1,1230.8 1805.7,1213.6 1847.3,1194 			"/>
			<polygon class="st5" points="1935.2,1191.5 1893.7,1211.2 1847.3,1194 1888.8,1174.3 			"/>
			<polygon class="st5" points="1976.8,1171.9 1935.2,1191.5 1888.9,1174.3 1930.4,1154.6 			"/>
			<polygon class="st5" points="2018.3,1152.2 1976.8,1171.8 1930.4,1154.6 1972,1135 			"/>
			<polygon class="st5" points="2059.9,1132.5 2018.4,1152.2 1972,1135 2013.5,1115.3 			"/>
			<polygon class="st5" points="2101.5,1112.9 2059.9,1132.5 2013.6,1115.3 2055.1,1095.7 			"/>
			<polygon class="st5" points="2055.1,1095.7 2013.6,1115.3 1967.2,1098.1 2008.8,1078.4 			"/>
			<polygon class="st5" points="2008.8,1078.4 1967.2,1098.1 1920.9,1080.9 1962.4,1061.2 			"/>
			<polygon class="st5" points="1962.4,1061.2 1920.9,1080.9 1874.5,1063.6 1916,1044 			"/>
			<polygon class="st5" points="1916,1044 1874.5,1063.6 1828.2,1046.4 1869.7,1026.8 			"/>
			<polygon class="st5" points="1869.7,1026.8 1828.2,1046.4 1781.8,1029.2 1823.3,1009.6 			"/>
			<polygon class="st5" points="1823.3,1009.6 1781.8,1029.2 1735.5,1012 1777,992.3 			"/>
			<polygon class="st5" points="1777,992.3 1735.5,1012 1689.1,994.8 1730.6,975.1 			"/>
			<polygon class="st5" points="1730.6,975.1 1689.1,994.8 1642.8,977.5 1684.3,957.9 			"/>
			<polygon class="st5" points="1684.3,957.9 1642.8,977.5 1596.4,960.3 1637.9,940.7 			"/>
			<polygon class="st5" points="1637.9,940.7 1596.4,960.3 1550,943.1 1591.6,923.5 			"/>
			<polygon class="st5" points="1591.6,923.5 1550,943.1 1503.7,925.9 1545.2,906.2 			"/>
			<polygon class="st5" points="1457.3,908.7 1498.9,889 1545.2,906.2 1503.7,925.9 			"/>
			<polygon class="st5" points="1415.8,928.3 1457.3,908.7 1503.6,925.9 1462.1,945.6 			"/>
			<polygon class="st5" points="1374.2,948 1415.7,928.4 1462.1,945.6 1420.5,965.2 			"/>
			<polygon class="st5" points="1332.6,967.7 1374.1,948 1420.5,965.2 1379,984.9 			"/>
			<polygon class="st5" points="1291.1,987.3 1332.6,967.7 1378.9,984.9 1337.4,1004.5 			"/>
			<polygon class="st5" points="1249.5,1007 1291,987.3 1337.4,1004.6 1295.8,1024.2 			"/>
			<polygon class="st5" points="1207.9,1026.7 1249.4,1007 1295.8,1024.2 1254.3,1043.9 			"/>
			<polygon class="st5" points="1166.3,1046.3 1207.9,1026.7 1254.2,1043.9 1212.7,1063.5 			"/>
			<polygon class="st5" points="1124.8,1066 1166.3,1046.3 1212.7,1063.6 1171.1,1083.2 			"/>
			<polygon class="st5" points="1083.2,1085.6 1124.7,1066 1171.1,1083.2 1129.6,1102.9 			"/>
			<polygon class="st5" points="1041.6,1105.3 1083.2,1085.7 1129.5,1102.9 1088,1122.5 			"/>
			<polygon class="st5" points="1000.1,1125 1041.6,1105.3 1087.9,1122.6 1046.4,1142.2 			"/>
			<polygon class="st5" points="958.5,1144.6 1000,1125 1046.4,1142.2 1004.9,1161.9 			"/>
			<polygon class="st5" points="916.9,1164.3 958.5,1144.7 1004.8,1161.9 963.3,1181.5 			"/>
			<polygon class="st5" points="875.4,1184 916.9,1164.3 963.2,1181.5 921.7,1201.2 			"/>
			<polygon class="st5" points="833.8,1203.6 875.3,1184 921.7,1201.2 880.1,1220.9 			"/>
			<polygon class="st5" points="792.2,1223.3 833.7,1203.7 880.1,1220.9 838.6,1240.5 			"/>
			<polygon class="st5" points="750.6,1243 792.2,1223.3 838.5,1240.5 797,1260.2 			"/>
			<polygon class="st5" points="709.1,1262.6 750.6,1243 797,1260.2 755.4,1279.8 			"/>
			<polygon class="st5" points="667.5,1282.3 709,1262.6 755.4,1279.9 713.9,1299.5 			"/>
			<polygon class="st5" points="625.9,1302 667.5,1282.3 713.8,1299.5 672.3,1319.2 			"/>
			<polygon class="st5" points="584.4,1321.6 625.9,1302 672.3,1319.2 630.7,1338.8 			"/>
			<polygon class="st5" points="630.7,1338.8 672.3,1319.2 718.6,1336.4 677.1,1356.1 			"/>
			<polygon class="st5" points="677.1,1356.1 718.6,1336.4 765,1353.6 723.4,1373.3 			"/>
			<polygon class="st5" points="723.4,1373.3 765,1353.6 811.3,1370.9 769.8,1390.5 			"/>
			<polygon class="st5" points="769.8,1390.5 811.3,1370.9 857.7,1388.1 816.1,1407.7 			"/>
			<polygon class="st5" points="816.1,1407.7 857.7,1388.1 904,1405.3 862.5,1424.9 			"/>
			<polygon class="st5" points="862.5,1424.9 904,1405.3 950.4,1422.5 908.9,1442.2 			"/>
			<polygon class="st5" points="908.9,1442.2 950.4,1422.5 996.7,1439.7 955.2,1459.4 			"/>
			<polygon class="st5" points="955.2,1459.4 996.7,1439.7 1043.1,1456.9 1001.6,1476.6 			"/>
			<polygon class="st5" points="1001.6,1476.6 1043.1,1456.9 1089.4,1474.2 1047.9,1493.8 			"/>
			<polygon class="st5" points="1047.9,1493.8 1089.4,1474.2 1135.8,1491.4 1094.3,1511 			"/>
			<polygon class="st5" points="1094.3,1511 1135.8,1491.4 1182.2,1508.6 1140.6,1528.3 			"/>
		</g>
	</g>
	<path class="st8" d="M844.2,1103.2c15.3,34.8-30.8,67-103.1,72s-143.3-19.2-158.6-53.9c-15.3-34.8,30.8-67,103.1-72
		C757.8,1044.3,828.9,1068.4,844.2,1103.2z"/>
	<g>
		
			<ellipse transform="matrix(0.1501 -0.9887 0.9887 0.1501 -389.3238 1651.4437)" class="st9" cx="765.9" cy="1052.2" rx="112.2" ry="112.2"/>
	</g>
</g>
</svg>
