<?xml version="1.0" encoding="utf-8"?>
<!-- Generator: Adobe Illustrator 20.0.0, SVG Export Plug-In . SVG Version: 6.00 Build 0)  -->
<svg version="1.1" id="Layer_1" xmlns="http://www.w3.org/2000/svg" xmlns:xlink="http://www.w3.org/1999/xlink" x="0px" y="0px"
	 viewBox="0 0 2580 1800" style="enable-background:new 0 0 2580 1800;" xml:space="preserve">
<style type="text/css">
	.st0{fill:#D7C9A9;stroke:#000000;stroke-width:0.25;stroke-linecap:round;stroke-linejoin:round;stroke-miterlimit:10;}
	.st1{fill:#CBCABE;stroke:#000000;stroke-width:0.25;stroke-linecap:round;stroke-linejoin:round;stroke-miterlimit:10;}
	.st2{fill:#98CBB1;stroke:#000000;stroke-width:0.25;stroke-linecap:round;stroke-linejoin:round;stroke-miterlimit:10;}
	.st3{stroke:#000000;stroke-width:0.25;stroke-linecap:round;stroke-linejoin:round;stroke-miterlimit:10;}
	.st4{fill:#83A1B5;stroke:#000000;stroke-width:0.25;stroke-linecap:round;stroke-linejoin:round;stroke-miterlimit:10;}
	.st5{fill:#FFFFFF;stroke:#000000;stroke-width:0.25;stroke-linecap:round;stroke-linejoin:round;stroke-miterlimit:10;}
	.st6{fill:#D32027;}
	.st7{fill:none;stroke:#000000;stroke-width:0.25;stroke-linecap:round;stroke-linejoin:round;stroke-miterlimit:10;}
	.st8{fill:#E5D9BD;stroke:#000000;stroke-linecap:round;stroke-linejoin:round;stroke-miterlimit:10;}
	.st9{fill:#83A1B5;stroke:#000000;stroke-linecap:round;stroke-linejoin:round;stroke-miterlimit:10;}
	.st10{fill:#FFFFFF;stroke:#000000;stroke-linecap:round;stroke-linejoin:round;stroke-miterlimit:10;}
	.st11{fill:#B0CE9A;stroke:#000000;stroke-linecap:round;stroke-linejoin:round;stroke-miterlimit:10;}
	.st12{fill:#87A095;stroke:#000000;stroke-linecap:round;stroke-linejoin:round;stroke-miterlimit:10;}
	.st13{fill:#EDCCD6;stroke:#000000;stroke-linecap:round;stroke-linejoin:round;stroke-miterlimit:10;}
	.st14{fill:#E5A1A6;stroke:#000000;stroke-linecap:round;stroke-linejoin:round;stroke-miterlimit:10;}
</style>
<g>
	<g>
		<path class="st0" d="M214.9,1347.4V1067c0-42.2,22.9-80.6,58.8-98.7l950.4-477.1v346L214.9,1347.4z"/>
		<path class="st1" d="M2365.1,1286.6c0-91.2,0-182.4,0-273.6c0-47.8-28.3-90.5-70.9-107l-1070-414.8v342.4
			C1604.4,984.6,1984.7,1135.6,2365.1,1286.6z"/>
		<path class="st2" d="M214.9,1347L911,1625.1c282,112.6,594.4,98.3,866.4-39.9l587.7-298.5L1224.7,831.9L214.9,1347z"/>
	</g>
	<g>
		<g>
			<polyline class="st1" points="1447.8,1586.6 1861.9,1379.3 1861.9,1158.6 1447.8,1365.9 1447.8,1586.6 			"/>
			<polyline class="st3" points="1473.4,1547.6 1724.1,1422.1 1724.1,1259.4 1473.4,1385 1473.4,1547.6 			"/>
			<polygon class="st4" points="1172.8,1477 1447.8,1586.6 1447.8,1365.9 1172.8,1257.3 			"/>
			<polygon class="st5" points="1172.8,1257.1 1447.8,1365.7 1861.9,1158.4 1587.1,1050.2 			"/>
			<path class="st5" d="M1564.1,1239.1l31,12.2c9.1,3.6,19.2,3.1,27.9-1.3l62.1-31.1c5.2-2.6,4.9-10.5-0.5-12.6l-30.9-12.2
				c-9.1-3.6-19.1-3.1-27.9,1.2l-62.2,31.1C1558.4,1229.1,1558.7,1237,1564.1,1239.1z"/>
			<path class="st5" d="M1673.4,1184.1l31,12.2c9.1,3.6,19.2,3.1,27.9-1.3l62.1-31.1c5.2-2.6,4.9-10.5-0.5-12.6l-30.9-12.2
				c-9.1-3.6-19.1-3.1-27.9,1.2l-62.2,31.1C1667.8,1174,1668.1,1181.9,1673.4,1184.1z"/>
		</g>
		<polyline class="st3" points="1172.8,1476.9 1062.1,1434 1172.8,1378.6 		"/>
		<g>
			<path class="st6" d="M1506.8,1405.3l-1.4,31.7l-7.7,13.5l-2.3-2.2l1.9-43.4L1506.8,1405.3z M1535.9,1387.8l-28.8,14.1l-9.4-0.3
				c1-4.8,3.1-8.6,6.4-11.3l36-17.6L1535.9,1387.8z M1543.3,1431.5l2.3,2.2l-2.1,46.7c-1,4.8-3.1,8.6-6.4,11.3l-3-11.6l1.6-35
				L1543.3,1431.5z M1536.7,1421.7l1.6-35l4.2-15.1c3.2-0.5,5,1.3,5.6,5.4l-2.1,46.7l-2.6,4.5L1536.7,1421.7z"/>
			<path class="st6" d="M1565.9,1451.5l-9.6,4.7l0.6-13.3l9.6-4.7L1565.9,1451.5z M1568.4,1398.1l-9.6,4.7l0.6-13.3l9.6-4.7
				L1568.4,1398.1z"/>
			<path class="st6" d="M1619,1451.7l-36.1,17.6c-3.2,0.5-5-1.3-5.6-5.4l9.9-9.7l28.9-14.1L1619,1451.7z M1591.1,1364.1l-1.4,31.7
				l-7.7,13.5l-2.3-2.2l1.9-43.4L1591.1,1364.1z M1623.7,1344.9l-32.4,15.8l-9.4-0.3c1-4.8,3.1-8.6,6.4-11.3l39.6-19.3
				L1623.7,1344.9z M1620.7,1385.5l4.5,4.3l-5.1,9l-31.3,15.3l-4.5-4.3l5.1-9L1620.7,1385.5z M1627.6,1390.4l2.3,2.2l-2.1,46.7
				c-1,4.8-3.1,8.6-6.4,11.3l-3-11.6l1.6-35L1627.6,1390.4z"/>
			<path class="st6" d="M1681.6,1421.1l-36.1,17.6c-3.2,0.5-5-1.3-5.6-5.4l9.9-9.7l28.9-14.1L1681.6,1421.1z M1653.7,1333.6
				l-1.4,31.7l-7.7,13.5l-2.3-2.2l1.9-43.4L1653.7,1333.6z M1682.7,1316.1l-28.8,14.1l-9.4-0.3c1-4.8,3.1-8.6,6.4-11.3l36-17.6
				L1682.7,1316.1z M1683.3,1355l4.5,4.3l-5.1,9l-31.3,15.3l-4.5-4.3l5.1-9L1683.3,1355z M1690.2,1359.8l2.3,2.2l-2.1,46.7
				c-1,4.8-3.1,8.6-6.4,11.3l-3-11.6l1.6-35L1690.2,1359.8z M1683.6,1350l1.6-35l4.2-15.1c3.2-0.5,5,1.3,5.6,5.4l-2.1,46.7l-2.6,4.5
				L1683.6,1350z"/>
		</g>
		<line class="st7" x1="1753.4" y1="1245.6" x2="1833.6" y2="1205.4"/>
		<line class="st7" x1="1753.4" y1="1261.6" x2="1833.6" y2="1221.4"/>
		<line class="st7" x1="1753.4" y1="1277.6" x2="1833.6" y2="1237.4"/>
		<line class="st7" x1="1753.4" y1="1293.6" x2="1833.6" y2="1253.5"/>
		<line class="st7" x1="1753.4" y1="1309.6" x2="1833.6" y2="1269.5"/>
		<line class="st7" x1="1753.4" y1="1325.6" x2="1833.6" y2="1285.5"/>
		<line class="st7" x1="1753.4" y1="1341.6" x2="1833.6" y2="1301.5"/>
		<line class="st7" x1="1753.4" y1="1357.7" x2="1833.6" y2="1317.5"/>
	</g>
	<g>
		<polyline class="st8" points="994,1028 1304.6,878.7 1304.6,276.3 994,425.5 994,1028 		"/>
		<polygon class="st9" points="901,993.5 994,1028 994,425.5 901,391.5 		"/>
		<polygon class="st10" points="901,391.5 994,425.5 1304.6,276.3 1211.7,242.5 		"/>
		<line class="st10" x1="933.9" y1="401.8" x2="1243.1" y2="253.8"/>
		<line class="st10" x1="963.7" y1="415.2" x2="1271.4" y2="264.9"/>
		<polyline class="st11" points="1151.4,1084.6 1462,935.3 1462,263.6 1151.4,412.9 1151.4,1084.6 		"/>
		<polygon class="st12" points="1058.4,1050.1 1151.4,1084.6 1151.4,412.9 1058.4,378.9 		"/>
		<polygon class="st10" points="1058.4,378.9 1151.4,412.9 1462,263.6 1369.1,229.8 		"/>
		<line class="st10" x1="1091.3" y1="389.1" x2="1400.5" y2="241.1"/>
		<line class="st10" x1="1121.1" y1="402.5" x2="1428.8" y2="252.3"/>
		<polyline class="st13" points="1306.7,1140.4 1617.3,991.1 1617.3,423.3 1306.7,572.6 1306.7,1140.4 		"/>
		<polygon class="st14" points="1213.7,1105.9 1306.7,1140.4 1306.7,572.6 1213.7,538.6 		"/>
		<polygon class="st10" points="1213.7,538.6 1306.7,572.6 1617.3,423.3 1524.4,389.5 		"/>
		<line class="st10" x1="1246.6" y1="548.8" x2="1555.7" y2="400.8"/>
		<line class="st10" x1="1276.3" y1="562.2" x2="1584.1" y2="412"/>
	</g>
</g>
</svg>
