<?xml version="1.0" encoding="utf-8"?>
<!-- Generator: Adobe Illustrator 20.0.0, SVG Export Plug-In . SVG Version: 6.00 Build 0)  -->
<svg version="1.1" id="Layer_1" xmlns="http://www.w3.org/2000/svg" xmlns:xlink="http://www.w3.org/1999/xlink" x="0px" y="0px"
	 viewBox="0 0 960 560" style="enable-background:new 0 0 960 560;" xml:space="preserve">
<style type="text/css">
	.st0{fill:#E5D8CA;}
	.st1{fill:#D6B97B;}
	.st2{opacity:0.7;fill:#E57067;}
	.st3{opacity:0.7;fill:#4F7772;}
	.st4{opacity:0.7;fill:#FFFFFF;}
	.st5{opacity:0.7;fill:#5BA0D3;}
</style>
<g>
	<path class="st0" d="M287.8,439.9c-7.6-20.3-26.4-78.9-4.8-145.4c12.3-37.7,32.9-63.6,43.1-75.2c25.5-29,52.1-43.6,60.8-48.2
		c65.9-34.3,129.9-20.9,146.4-17.2c31,6.9,52.6,19.2,59.9,23.5c8,4.7,24.5,14.8,41,33.1c0.3,0.4,1.9,2.2,3.3,3.8
		c9.6,11.5,31.7,42.1,27,83.2c-3.7,32.8-22.6,54.5-30.3,62.4c-6.5,7-25.6,25.6-56.5,31.1c-28.3,5.1-50.5-3.6-59-7.1
		c-16.5-6.7-28-16-34.9-22.5C418.4,387.6,353.1,413.7,287.8,439.9z"/>
	<path class="st1" d="M529.8,218.7c26.2,51.5,5.8,114.5-45.7,140.7c-95-186.4,0,0-95-186.4C440.6,146.8,503.6,167.2,529.8,218.7z"/>
	<path class="st2" d="M611.2,283.9c-14.3,56-71.2,89.8-127.2,75.6c51.6-202.8,0,0,51.6-202.8C591.7,170.9,625.5,227.9,611.2,283.9z"
		/>
	<path class="st3" d="M632,359.4c-40.9,40.9-107.1,40.9-148,0c148-148,0,0,148-148C672.9,252.3,672.9,318.6,632,359.4z"/>
	<path class="st4" d="M416.9,227.6c55,17.9,85,76.9,67.2,131.8c-199-64.7,0,0-199-64.7C302.9,239.8,361.9,209.7,416.9,227.6z"/>
	<path class="st5" d="M347.9,301.4c53.6-21.6,114.5,4.4,136.1,58c-194.1,78.2,0,0-194.1,78.2C268.4,384,294.3,323,347.9,301.4z"/>
</g>
</svg>
